<svg width="210" height="39" viewBox="0 0 210 39" fill="none" xmlns="http://www.w3.org/2000/svg">
<g clip-path="url(#clip0)">
<path d="M13.2399 12.376C13.0172 11.804 12.7089 11.3013 12.2978 10.868C11.9038 10.4347 11.4242 10.088 10.8761 9.81067C10.4992 9.62001 10.1053 9.49867 9.69418 9.41201C10.4821 9.08267 11.1501 8.61467 11.6469 7.99067C12.2635 7.22801 12.589 6.25734 12.589 5.09601C12.589 4.17734 12.4005 3.39734 12.0066 2.77334C11.6297 2.14934 11.1159 1.64667 10.5164 1.26534C9.91686 0.884007 9.21457 0.606672 8.44378 0.433339C7.6901 0.260005 6.88505 0.190674 6.09712 0.190674H0.119141V19.7947H5.99435C6.88505 19.7947 7.77575 19.7081 8.66645 19.5521C9.57428 19.3787 10.3965 19.0841 11.1159 18.6681C11.8524 18.2521 12.4519 17.6801 12.8973 16.9693C13.3598 16.2587 13.5824 15.34 13.5824 14.2307C13.5824 13.572 13.4625 12.948 13.2399 12.376ZM6.38831 17.316H2.73986V10.7987H6.4397C7.00495 10.7987 7.55307 10.8507 8.08407 10.9547C8.61506 11.0587 9.07754 11.2493 9.47151 11.5093C9.86547 11.7693 10.1909 12.116 10.4307 12.532C10.6705 12.9653 10.7904 13.5027 10.7904 14.1267C10.7904 14.6987 10.6705 15.2013 10.4136 15.6C10.1567 15.9987 9.81409 16.328 9.40299 16.5707C8.97477 16.8307 8.49516 17.004 7.9813 17.1253C7.46743 17.264 6.93643 17.316 6.38831 17.316ZM9.50576 6.89867C9.26596 7.28001 8.95764 7.57467 8.58081 7.78267C8.18684 7.99067 7.74149 8.14667 7.26188 8.21601C6.76515 8.28534 6.23415 8.32001 5.72028 8.32001H2.73986V2.61734H5.92583C6.42257 2.61734 6.90218 2.65201 7.39891 2.73867C7.86139 2.80801 8.28962 2.96401 8.66645 3.17201C9.02616 3.38001 9.31735 3.65734 9.54002 4.00401C9.7627 4.35067 9.86547 4.80134 9.86547 5.37334C9.84834 6.01467 9.72844 6.53467 9.50576 6.89867Z" fill="white"/>
<path d="M32.7514 0.17334H30.4047L21.8574 19.7773H24.7865L26.7563 15.0453H36.0401L37.9757 19.7773H40.9904L32.7514 0.17334ZM35.0466 12.584H27.784L31.501 3.67467L35.0466 12.584Z" fill="white"/>
<path d="M58.4604 10.868C59.865 10.608 60.9784 10.0533 61.8005 9.204C62.6741 8.30267 63.1195 7.10667 63.1195 5.65067C63.1195 4.42 62.8797 3.43201 62.4172 2.70401C61.9547 1.97601 61.3381 1.42134 60.6015 1.05734C59.865 0.693341 59.0257 0.450671 58.1178 0.329338C57.21 0.225338 56.2851 0.17334 55.3601 0.17334H50.3242V19.7773H52.9278V11.128H55.5656L60.7214 19.7773H63.8903L58.4604 10.868ZM59.8307 7.36667C59.4881 7.76534 59.0428 8.06 58.5118 8.25067C57.9637 8.44134 57.3642 8.56267 56.6961 8.59734C56.0281 8.632 55.3772 8.64934 54.7606 8.64934H52.9107V2.63467H55.9082C56.4563 2.63467 57.0045 2.66934 57.5355 2.73867C58.0665 2.80801 58.5461 2.94667 58.9572 3.17201C59.3682 3.38001 59.7108 3.69201 59.9506 4.07334C60.2076 4.45467 60.3275 4.992 60.3275 5.63334C60.3446 6.396 60.1733 6.98534 59.8307 7.36667Z" fill="white"/>
<path d="M87.2555 12.376C87.0328 11.804 86.7245 11.3013 86.3134 10.868C85.9194 10.4347 85.4398 10.088 84.8917 9.81067C84.5149 9.62001 84.1209 9.49867 83.7098 9.41201C84.4977 9.08267 85.1658 8.61467 85.6625 7.99067C86.2791 7.22801 86.6046 6.25734 86.6046 5.09601C86.6046 4.17734 86.4162 3.39734 86.0222 2.77334C85.6454 2.14934 85.1315 1.64667 84.532 1.26534C83.9325 0.884007 83.2302 0.606672 82.4594 0.433339C81.7057 0.260005 80.9007 0.190674 80.1127 0.190674H74.1348V19.7947H79.9928C80.8835 19.7947 81.7742 19.7081 82.6649 19.5521C83.5728 19.3787 84.395 19.0841 85.1144 18.6681C85.8509 18.2521 86.4504 17.6801 86.8958 16.9693C87.3583 16.2587 87.5809 15.34 87.5809 14.2307C87.5981 13.572 87.4782 12.948 87.2555 12.376ZM76.7555 2.63467H79.9415C80.4382 2.63467 80.9178 2.66934 81.4145 2.75601C81.877 2.82534 82.3052 2.98134 82.6821 3.18934C83.0418 3.39734 83.333 3.67467 83.5556 4.02134C83.7783 4.36801 83.8811 4.81867 83.8811 5.39067C83.8811 6.03201 83.7612 6.53467 83.5385 6.91601C83.2987 7.29734 82.9904 7.59201 82.6136 7.80001C82.2196 8.00801 81.7742 8.16401 81.2946 8.23334C80.7979 8.30267 80.2669 8.33734 79.753 8.33734H76.8069V2.63467H76.7555ZM84.4463 15.6173C84.1894 16.016 83.8468 16.3453 83.4357 16.588C83.0075 16.848 82.5279 17.0213 82.014 17.1427C81.4831 17.264 80.9349 17.316 80.4039 17.316H76.7555V10.7987H80.4553C81.0206 10.7987 81.5687 10.8507 82.0997 10.9547C82.6307 11.0587 83.0932 11.2493 83.4871 11.5093C83.8811 11.7693 84.2065 12.116 84.4463 12.532C84.6862 12.9653 84.8061 13.5027 84.8061 14.1267C84.8232 14.716 84.7033 15.2187 84.4463 15.6173Z" fill="white"/>
<path d="M100.772 17.316V10.7987H109.833V8.33734H100.772V2.63467H110.467V0.17334H98.168V19.7773H110.963V17.316H100.772Z" fill="white"/>
<path d="M129.478 10.868C130.883 10.608 131.996 10.0533 132.818 9.204C133.692 8.30267 134.137 7.10667 134.137 5.65067C134.137 4.42 133.897 3.43201 133.435 2.70401C132.972 1.97601 132.356 1.42134 131.619 1.05734C130.883 0.693341 130.043 0.450671 129.135 0.329338C128.228 0.225338 127.303 0.17334 126.378 0.17334H121.342V19.7773H123.945V11.128H126.583L131.739 19.7773H134.908L129.478 10.868ZM130.865 7.36667C130.523 7.76534 130.077 8.06 129.546 8.25067C128.998 8.44134 128.399 8.56267 127.731 8.59734C127.063 8.632 126.412 8.64934 125.795 8.64934H123.945V2.63467H126.943C127.491 2.63467 128.039 2.66934 128.57 2.73867C129.101 2.80801 129.581 2.94667 129.992 3.17201C130.403 3.38001 130.745 3.69201 130.985 4.07334C131.242 4.45467 131.362 4.992 131.362 5.63334C131.379 6.396 131.208 6.98534 130.865 7.36667Z" fill="white"/>
<path d="M165.21 3.01625C164.833 2.30559 164.319 1.75092 163.669 1.31758C163.035 0.901585 162.298 0.606917 161.493 0.41625C160.688 0.242916 159.832 0.15625 158.941 0.15625H153.117V19.7602H155.721V11.1109H159.369C160.037 11.1109 160.757 11.0243 161.51 10.8683C162.264 10.6949 162.966 10.4176 163.6 10.0016C164.234 9.58559 164.765 9.01359 165.176 8.30292C165.587 7.59225 165.793 6.67359 165.793 5.59892C165.775 4.61092 165.587 3.72692 165.21 3.01625ZM163.018 5.65092C163.018 6.69092 162.692 7.43625 162.024 7.92159C161.356 8.40692 160.448 8.66692 159.369 8.66692H155.721V2.65225H159.369C160.448 2.65225 161.356 2.89492 162.024 3.39759C162.692 3.86559 163.018 4.61092 163.018 5.65092Z" fill="white"/>
<path d="M177.01 17.316V10.7987H186.088V8.33734H177.01V2.63467H186.722V0.17334H174.424V19.7773H187.202V17.316H177.01Z" fill="white"/>
<path d="M194.672 0.17334V2.63467H200.958V19.7773H203.562V2.63467H209.865V0.17334H194.672Z" fill="white"/>
<path d="M79.1863 37.8734L78.5697 37.388C78.3641 37.648 78.1243 37.856 77.8503 37.9774C77.5762 38.116 77.2336 38.1854 76.8396 38.1854C76.5827 38.1854 76.36 38.1334 76.1374 38.0467C75.9318 37.9427 75.7434 37.8214 75.5892 37.6654C75.4351 37.5094 75.298 37.3187 75.2124 37.0934C75.1096 36.868 75.0582 36.6427 75.0411 36.4V36.348H79.409V36.1054C79.409 35.6547 79.3405 35.256 79.2206 34.9094C79.1007 34.5627 78.9294 34.268 78.7067 34.0254C78.484 33.7827 78.21 33.6094 77.9016 33.4707C77.5933 33.3494 77.2507 33.28 76.8739 33.28C76.4799 33.28 76.1202 33.3494 75.7776 33.488C75.4522 33.6267 75.161 33.8174 74.9212 34.06C74.6814 34.3027 74.493 34.6147 74.3559 34.9614C74.2189 35.308 74.1504 35.6894 74.1504 36.1054C74.1504 36.4867 74.2189 36.868 74.3388 37.2147C74.4587 37.5614 74.6471 37.856 74.8698 38.116C75.0925 38.376 75.3837 38.5667 75.7091 38.7227C76.0346 38.8787 76.4114 38.948 76.8396 38.948C77.3364 38.948 77.7817 38.8614 78.1586 38.7054C78.5354 38.5494 78.878 38.272 79.1863 37.8734ZM75.0411 35.62C75.1096 35.152 75.298 34.7534 75.6064 34.476C75.9147 34.1814 76.3429 34.0427 76.8396 34.0427C77.3535 34.0427 77.7475 34.1814 78.0387 34.476C78.3299 34.7707 78.484 35.152 78.5012 35.62V35.672H78.4498H75.024L75.0411 35.62Z" fill="white"/>
<path d="M87.9563 38.0467C88.0763 37.8387 88.1276 37.5787 88.1276 37.2667C88.1276 37.0067 88.0763 36.7814 87.9906 36.5907C87.905 36.4174 87.7851 36.2614 87.6138 36.14C87.4596 36.0187 87.2712 35.9147 87.0656 35.8454C86.8601 35.776 86.6203 35.7067 86.3976 35.672C86.2263 35.6374 86.055 35.6027 85.8837 35.5507C85.7125 35.4987 85.5583 35.4467 85.4384 35.3774C85.3014 35.308 85.1986 35.2387 85.1301 35.152C85.0444 35.0654 85.0102 34.944 85.0102 34.8227C85.0102 34.684 85.0444 34.5627 85.1129 34.4587C85.1815 34.3547 85.2671 34.268 85.3699 34.1987C85.4726 34.1294 85.5925 34.0774 85.7296 34.06C85.8666 34.0254 85.9865 34.008 86.1064 34.008C86.3805 34.008 86.6203 34.0774 86.8087 34.1987C86.9971 34.32 87.1342 34.4587 87.2541 34.6494L87.9392 34.1987C87.7679 33.8694 87.511 33.644 87.2027 33.488C86.8772 33.332 86.5346 33.2627 86.1578 33.2627C85.9009 33.2627 85.6611 33.2974 85.4384 33.3667C85.1986 33.436 84.993 33.54 84.8046 33.6614C84.6162 33.7827 84.462 33.956 84.3593 34.1467C84.2565 34.3374 84.188 34.5627 84.188 34.8227C84.188 35.1 84.2394 35.3254 84.3421 35.4814C84.4449 35.6547 84.5819 35.7934 84.7361 35.8974C84.9074 36.0014 85.1129 36.1054 85.3356 36.1747C85.5583 36.244 85.8152 36.3134 86.055 36.3654C86.2092 36.4 86.3462 36.4347 86.4833 36.4694C86.6203 36.504 86.7573 36.556 86.8601 36.6254C86.98 36.6947 87.0656 36.7814 87.1342 36.8854C87.2027 36.9894 87.2369 37.1107 87.2369 37.2667C87.2369 37.4227 87.2027 37.5614 87.1342 37.6654C87.0656 37.7694 86.9629 37.8734 86.843 37.9427C86.7231 38.012 86.586 38.064 86.449 38.0987C86.312 38.1334 86.1578 38.1507 86.0208 38.1507C85.6953 38.1507 85.4213 38.0814 85.1986 37.9427C84.993 37.8214 84.8046 37.648 84.6333 37.4227L83.9824 37.9254C84.2394 38.2894 84.5305 38.532 84.8389 38.6707C85.1643 38.8094 85.5583 38.8787 86.0208 38.8787C86.2777 38.8787 86.5518 38.844 86.8087 38.792C87.0656 38.7227 87.2883 38.636 87.4939 38.4974C87.6823 38.4454 87.8364 38.2547 87.9563 38.0467Z" fill="white"/>
<path d="M96.0575 38.0293C95.9548 38.0813 95.8349 38.116 95.715 38.1506C95.5779 38.1853 95.4409 38.2026 95.3039 38.2026C95.0983 38.2026 94.927 38.168 94.8243 38.0986C94.7044 38.0293 94.6187 37.9253 94.5673 37.804C94.5159 37.6826 94.4817 37.544 94.4646 37.388C94.4646 37.232 94.4474 37.076 94.4474 36.8853V34.112H96.0404V33.436H94.4474V31.876H93.6252V33.436H92.4434V34.112H93.6252V37.1626C93.6252 37.44 93.6424 37.7 93.6766 37.9253C93.7109 38.1506 93.7794 38.3413 93.8822 38.48C93.9849 38.636 94.122 38.74 94.3104 38.8266C94.4988 38.9133 94.7558 38.948 95.0641 38.948C95.2354 38.948 95.4066 38.9306 95.5951 38.896C95.7663 38.8613 95.9205 38.8266 96.0747 38.7573L96.0575 38.0293Z" fill="white"/>
<path d="M102.088 37.7522C101.968 37.6309 101.814 37.5615 101.626 37.5615C101.437 37.5615 101.3 37.6309 101.163 37.7522C101.043 37.8735 100.975 38.0295 100.975 38.2202C100.975 38.4109 101.043 38.5495 101.18 38.6882C101.317 38.8095 101.471 38.8789 101.626 38.8789C101.797 38.8789 101.934 38.8095 102.071 38.6882C102.208 38.5669 102.276 38.4109 102.276 38.2202C102.276 38.0469 102.225 37.8909 102.088 37.7522Z" fill="white"/>
<path d="M110.634 38.1507L112.415 36.4693C112.57 36.3307 112.707 36.1747 112.844 36.036C112.981 35.8973 113.101 35.7413 113.22 35.568C113.323 35.3947 113.426 35.2213 113.494 35.0307C113.563 34.84 113.597 34.6147 113.597 34.372C113.597 34.0947 113.546 33.852 113.443 33.644C113.34 33.436 113.203 33.2627 113.032 33.124C112.861 32.9853 112.672 32.8813 112.45 32.812C112.227 32.7427 111.987 32.708 111.73 32.708C111.49 32.708 111.251 32.7427 111.045 32.812C110.839 32.8813 110.634 32.9853 110.48 33.1067C110.308 33.228 110.171 33.4013 110.052 33.592C109.932 33.7827 109.863 34.008 109.829 34.2507V34.3027L110.686 34.372V34.3373C110.737 34.06 110.857 33.8347 111.045 33.6613C111.233 33.488 111.473 33.4013 111.764 33.4013C111.919 33.4013 112.056 33.4187 112.176 33.4707C112.296 33.5227 112.415 33.5747 112.501 33.6613C112.587 33.748 112.672 33.852 112.724 33.9733C112.775 34.0947 112.809 34.2333 112.809 34.3893C112.809 34.528 112.792 34.6667 112.758 34.7707C112.724 34.892 112.672 34.996 112.604 35.1C112.535 35.204 112.45 35.3253 112.347 35.4293C112.244 35.5507 112.124 35.672 111.97 35.8107L109.726 38.0293L109.709 38.0467V38.9307H113.632V38.1853H110.634V38.1507Z" fill="white"/>
<path d="M121.033 34.7707C120.982 34.4067 120.862 34.06 120.725 33.748C120.571 33.436 120.365 33.176 120.091 32.9853C119.817 32.7773 119.474 32.6907 119.063 32.6907C118.652 32.6907 118.292 32.7947 118.036 32.9853C117.779 33.176 117.556 33.436 117.402 33.748C117.248 34.06 117.145 34.4067 117.093 34.7707C117.042 35.1347 117.008 35.4987 117.008 35.8453C117.008 36.192 117.042 36.556 117.093 36.92C117.145 37.284 117.248 37.6307 117.402 37.9427C117.556 38.2547 117.761 38.5147 118.036 38.7053C118.31 38.9133 118.652 39 119.063 39C119.474 39 119.834 38.896 120.091 38.7053C120.348 38.5147 120.571 38.2547 120.725 37.9427C120.879 37.6307 120.982 37.284 121.033 36.92C121.084 36.556 121.119 36.192 121.119 35.8453C121.119 35.4987 121.084 35.1347 121.033 34.7707ZM119.526 38.1853C119.389 38.272 119.235 38.3067 119.046 38.3067C118.858 38.3067 118.704 38.272 118.567 38.1853C118.43 38.0987 118.31 37.9947 118.224 37.8733C118.121 37.7347 118.053 37.596 118.001 37.4227C117.95 37.2493 117.899 37.076 117.864 36.8853C117.83 36.712 117.813 36.5213 117.796 36.348C117.779 36.1747 117.779 36.0013 117.779 35.8627C117.779 35.7067 117.779 35.5507 117.796 35.3773C117.813 35.204 117.83 35.0133 117.864 34.84C117.899 34.6667 117.933 34.476 118.001 34.3027C118.053 34.1293 118.138 33.9733 118.224 33.852C118.31 33.7133 118.43 33.6093 118.567 33.54C118.704 33.4533 118.858 33.4187 119.046 33.4187C119.235 33.4187 119.389 33.4533 119.526 33.54C119.663 33.6267 119.783 33.7307 119.868 33.852C119.971 33.9907 120.04 34.1467 120.091 34.3027C120.142 34.476 120.194 34.6493 120.228 34.84C120.262 35.0307 120.279 35.204 120.297 35.3773C120.314 35.5507 120.314 35.724 120.314 35.8627C120.314 36.0013 120.314 36.1747 120.297 36.348C120.279 36.5213 120.262 36.712 120.228 36.8853C120.194 37.0587 120.16 37.2493 120.091 37.4227C120.04 37.596 119.954 37.752 119.868 37.8733C119.783 37.9947 119.663 38.0987 119.526 38.1853Z" fill="white"/>
<path d="M126.497 32.7773L124.836 34.1293L125.316 34.7187L126.378 33.8173V38.896H127.165V32.7773H126.497Z" fill="white"/>
<path d="M135.711 36.2787C135.625 36.036 135.488 35.828 135.334 35.672C135.163 35.4987 134.975 35.36 134.752 35.2733C134.529 35.1867 134.272 35.1347 134.015 35.1347C133.895 35.1347 133.741 35.152 133.604 35.1693C133.501 35.1867 133.399 35.2213 133.296 35.256L134.872 32.76H133.947L132.354 35.3253C132.183 35.5853 132.046 35.8453 131.943 36.1227C131.84 36.3827 131.771 36.6947 131.771 37.0587C131.771 37.3533 131.823 37.6307 131.926 37.8733C132.028 38.116 132.183 38.3067 132.354 38.48C132.542 38.6533 132.748 38.7747 133.005 38.8613C133.245 38.948 133.519 39 133.81 39C134.101 39 134.358 38.948 134.615 38.8613C134.855 38.7747 135.077 38.636 135.266 38.48C135.454 38.3067 135.591 38.116 135.694 37.8733C135.797 37.6307 135.848 37.3707 135.848 37.0587C135.848 36.7813 135.797 36.5213 135.711 36.2787ZM135.06 37.0587C135.06 37.2493 135.026 37.4227 134.957 37.5787C134.889 37.7347 134.803 37.856 134.701 37.96C134.598 38.064 134.461 38.1507 134.307 38.2027C133.998 38.324 133.621 38.324 133.33 38.2027C133.176 38.1507 133.039 38.064 132.936 37.96C132.833 37.856 132.731 37.7173 132.679 37.5787C132.611 37.4227 132.577 37.2493 132.577 37.0587C132.577 36.868 132.611 36.6947 132.679 36.5387C132.748 36.3827 132.833 36.2613 132.936 36.14C133.039 36.036 133.176 35.9493 133.33 35.8973C133.484 35.8453 133.639 35.8107 133.827 35.8107C133.998 35.8107 134.17 35.8453 134.324 35.8973C134.478 35.9493 134.615 36.036 134.718 36.14C134.82 36.244 134.923 36.3827 134.975 36.5387C135.026 36.712 135.06 36.8853 135.06 37.0587Z" fill="white"/>
</g>
<defs>
<clipPath id="clip0">
<rect width="210" height="39" fill="white"/>
</clipPath>
</defs>
</svg>
