<svg width="174" height="38" viewBox="0 0 174 38" fill="none" xmlns="http://www.w3.org/2000/svg">
<rect width="173.283" height="38" rx="19" fill="#FEE9B0"/>
<path d="M23.7019 16.4344C24.8837 13.3783 26.106 10.3387 27.3692 7.31527C27.2065 7.31527 27.0439 7.31527 26.8811 7.31527C27.82 9.75099 28.7054 12.2062 29.5384 14.6802C29.5646 14.758 29.6273 14.8443 29.7152 14.858C31.088 15.0721 32.445 15.0075 33.8229 14.8776C34.5524 14.8086 35.2809 14.7254 36.0126 14.6795C36.4285 14.6536 36.8453 14.6363 37.2623 14.6408C37.6696 14.6453 38.1453 14.6374 38.05 15.2317C38.0054 15.5091 37.5625 15.9498 37.3945 16.174C37.1799 16.4598 36.9553 16.7379 36.7223 17.0084C36.2951 17.5035 35.8381 17.9727 35.3531 18.4107C34.3846 19.2851 33.5098 19.578 33.6665 21.0202C33.8044 22.2872 34.3912 23.4208 34.8747 24.5792C35.1546 25.2498 35.3921 25.9334 35.5777 26.6367C35.6938 27.0766 36.2175 28.6344 35.8403 28.9129C35.5173 29.1515 35.2042 28.8181 34.8782 28.617C34.5754 28.4302 34.2752 28.2391 33.9773 28.0444C33.3787 27.6534 32.7905 27.2469 32.2126 26.8257C30.9364 25.8953 29.7202 24.8896 28.551 23.8275C28.4525 23.7382 28.2898 23.7223 28.1931 23.8275C26.0614 26.1451 23.8583 28.3936 21.5834 30.5693C21.7275 30.6293 21.8716 30.6892 22.0154 30.7492C21.9455 28.0596 22.014 25.3721 22.2199 22.6898C22.226 22.6095 22.1691 22.5032 22.0947 22.4699C19.9752 21.5231 18.0856 20.2045 16.4307 18.5724C16.4135 18.7057 16.3965 18.8388 16.3793 18.9721C18.545 17.7009 20.9224 16.9414 23.4295 16.7991C23.7532 16.7808 23.7555 16.2718 23.4295 16.2902C20.8338 16.4375 18.3666 17.2163 16.1241 18.5328C15.9842 18.6148 15.9562 18.8176 16.0728 18.9323C16.8581 19.7069 17.6938 20.4246 18.5921 21.064C19.0639 21.4001 19.5513 21.7142 20.0523 22.0043C20.3007 22.1482 20.5529 22.2862 20.808 22.418C20.9641 22.4987 21.466 22.6637 21.5791 22.7932C21.8721 23.1285 21.6041 24.272 21.5817 24.7021C21.5468 25.3735 21.5208 26.0453 21.5036 26.7176C21.4694 28.0614 21.4745 29.4055 21.5094 30.7492C21.5151 30.9713 21.7809 31.0822 21.9412 30.9291C24.2162 28.7535 26.4191 26.5049 28.551 24.1873C28.4317 24.1873 28.3124 24.1873 28.1931 24.1873C29.3183 25.2094 30.4879 26.1791 31.7092 27.083C32.3255 27.5391 32.954 27.9785 33.594 28.4005C34.1491 28.7661 34.7505 29.2511 35.3753 29.4858C36.2401 29.8109 36.5542 29.1933 36.4444 28.4016C36.2435 26.9535 35.8415 25.5597 35.2685 24.2174C34.9504 23.4723 34.5949 22.7382 34.3699 21.9571C34.2573 21.5652 34.1432 21.1348 34.148 20.7243C34.1562 19.9996 34.613 19.6873 35.0806 19.3091C36.153 18.442 37.0987 17.4277 37.916 16.3156C38.3008 15.792 39.2087 14.565 38.1348 14.1848C37.632 14.0068 36.8464 14.1273 36.3252 14.1527C35.4887 14.1938 34.6565 14.2899 33.8229 14.3687C32.9425 14.4517 32.0591 14.5226 31.1741 14.494C30.9692 14.4875 30.7568 14.4929 30.5544 14.4574C30.0767 14.3732 30.0185 14.2667 29.8172 13.9254C29.6099 13.5737 29.5277 13.0789 29.3919 12.689C28.7485 10.8415 28.0727 9.00554 27.3692 7.18001C27.2746 6.93471 26.9792 6.94534 26.8811 7.18001C25.6183 10.2032 24.3957 13.243 23.214 16.2992C23.096 16.6046 23.585 16.7368 23.7019 16.4344Z" fill="#333333"/>
<path d="M32.8437 12.2003C38.3802 10.9195 43.9516 9.80893 49.5516 8.86929C49.8727 8.81554 49.7364 8.30889 49.4167 8.36245C43.817 9.3021 38.2457 10.4129 32.709 11.6934C32.3908 11.7671 32.5255 12.2739 32.8437 12.2003Z" fill="#333333"/>
<path d="M40.9981 17.636C47.6184 16.3721 54.3087 15.4775 61.0397 14.9566C61.3638 14.9314 61.3656 14.4473 61.0397 14.4727C54.2636 14.9969 47.5274 15.8971 40.8629 17.1693C40.5421 17.2305 40.6779 17.6973 40.9981 17.636Z" fill="#333333"/>
<path d="M39.5625 22.8473C46.7284 22.0875 53.8879 21.2724 61.0416 20.4023C61.3611 20.3633 61.3647 19.8685 61.0416 19.9079C53.8879 20.7779 46.7284 21.5931 39.5625 22.3531C39.2414 22.3874 39.2378 22.882 39.5625 22.8473Z" fill="#333333"/>
<path d="M79.1641 21.2031C79.1641 20.8906 79.112 20.612 79.0078 20.3672C78.9036 20.1224 78.7318 19.9036 78.4922 19.7109C78.2578 19.513 77.9401 19.3307 77.5391 19.1641C77.1432 18.9922 76.6484 18.8229 76.0547 18.6562C75.487 18.4948 74.974 18.3177 74.5156 18.125C74.0573 17.9323 73.6641 17.7109 73.3359 17.4609C73.013 17.2109 72.7656 16.9193 72.5938 16.5859C72.4219 16.2474 72.3359 15.8542 72.3359 15.4062C72.3359 14.9688 72.4297 14.5703 72.6172 14.2109C72.8047 13.8516 73.0677 13.5417 73.4062 13.2812C73.75 13.0208 74.1536 12.8203 74.6172 12.6797C75.0859 12.5391 75.599 12.4688 76.1562 12.4688C76.9531 12.4688 77.6406 12.6198 78.2188 12.9219C78.8021 13.224 79.2526 13.6328 79.5703 14.1484C79.8932 14.6589 80.0547 15.2318 80.0547 15.8672H79.0938C79.0938 15.3724 78.9766 14.9323 78.7422 14.5469C78.513 14.1562 78.1797 13.8516 77.7422 13.6328C77.3099 13.4089 76.7812 13.2969 76.1562 13.2969C75.5312 13.2969 75.0052 13.3932 74.5781 13.5859C74.1562 13.7734 73.8359 14.026 73.6172 14.3438C73.4036 14.6562 73.2969 15.0052 73.2969 15.3906C73.2969 15.6615 73.349 15.9115 73.4531 16.1406C73.5573 16.3646 73.7266 16.5755 73.9609 16.7734C74.2005 16.9661 74.5156 17.1484 74.9062 17.3203C75.2969 17.487 75.7786 17.6458 76.3516 17.7969C76.9557 17.9635 77.4922 18.1484 77.9609 18.3516C78.4297 18.5547 78.8255 18.7891 79.1484 19.0547C79.4714 19.3151 79.7161 19.6198 79.8828 19.9688C80.0495 20.3177 80.1328 20.724 80.1328 21.1875C80.1328 21.651 80.0339 22.0677 79.8359 22.4375C79.6432 22.8021 79.3698 23.112 79.0156 23.3672C78.6667 23.6224 78.2526 23.8177 77.7734 23.9531C77.2995 24.0885 76.7812 24.1562 76.2188 24.1562C75.7135 24.1562 75.2109 24.0911 74.7109 23.9609C74.2109 23.8307 73.7526 23.6302 73.3359 23.3594C72.9245 23.0833 72.5938 22.7292 72.3438 22.2969C72.099 21.8646 71.9766 21.349 71.9766 20.75H72.9297C72.9297 21.2292 73.026 21.6328 73.2188 21.9609C73.4115 22.2891 73.6667 22.5547 73.9844 22.7578C74.3073 22.9609 74.6615 23.1094 75.0469 23.2031C75.4375 23.2917 75.8281 23.3359 76.2188 23.3359C76.8177 23.3359 77.3359 23.2474 77.7734 23.0703C78.2161 22.8932 78.5573 22.6458 78.7969 22.3281C79.0417 22.0052 79.1641 21.6302 79.1641 21.2031ZM92.2094 17.7031V18.9219C92.2094 19.7188 92.1052 20.4401 91.8969 21.0859C91.6938 21.7266 91.3969 22.276 91.0063 22.7344C90.6208 23.1927 90.1573 23.5443 89.6156 23.7891C89.074 24.0339 88.4646 24.1562 87.7875 24.1562C87.126 24.1562 86.5219 24.0339 85.975 23.7891C85.4333 23.5443 84.9672 23.1927 84.5766 22.7344C84.1859 22.276 83.8839 21.7266 83.6703 21.0859C83.4568 20.4401 83.35 19.7188 83.35 18.9219V17.7031C83.35 16.9062 83.4542 16.1875 83.6625 15.5469C83.876 14.901 84.1781 14.349 84.5688 13.8906C84.9594 13.4323 85.4255 13.0807 85.9672 12.8359C86.5089 12.5911 87.1104 12.4688 87.7719 12.4688C88.449 12.4688 89.0583 12.5911 89.6 12.8359C90.1417 13.0807 90.6078 13.4323 90.9984 13.8906C91.3891 14.349 91.6885 14.901 91.8969 15.5469C92.1052 16.1875 92.2094 16.9062 92.2094 17.7031ZM91.2563 18.9219V17.6875C91.2563 17.0156 91.1781 16.4115 91.0219 15.875C90.8708 15.3385 90.6443 14.8802 90.3422 14.5C90.0453 14.1198 89.6807 13.8281 89.2484 13.625C88.8161 13.4219 88.324 13.3203 87.7719 13.3203C87.2354 13.3203 86.7536 13.4219 86.3266 13.625C85.8995 13.8281 85.5349 14.1198 85.2328 14.5C84.9359 14.8802 84.7068 15.3385 84.5453 15.875C84.3891 16.4115 84.3109 17.0156 84.3109 17.6875V18.9219C84.3109 19.599 84.3891 20.2083 84.5453 20.75C84.7068 21.2865 84.9385 21.7474 85.2406 22.1328C85.5427 22.513 85.9073 22.8047 86.3344 23.0078C86.7667 23.2109 87.251 23.3125 87.7875 23.3125C88.3448 23.3125 88.837 23.2109 89.2641 23.0078C89.6911 22.8047 90.0531 22.513 90.35 22.1328C90.6469 21.7474 90.8708 21.2865 91.0219 20.75C91.1781 20.2083 91.2563 19.599 91.2563 18.9219ZM102.817 23.1797V24H96.9188V23.1797H102.817ZM97.2 12.625V24H96.2391V12.625H97.2ZM109.386 24H106.808L106.823 23.1797H109.386C110.204 23.1797 110.907 22.9974 111.495 22.6328C112.089 22.263 112.547 21.7526 112.87 21.1016C113.193 20.4505 113.355 19.6953 113.355 18.8359V17.7734C113.355 17.1172 113.261 16.5234 113.073 15.9922C112.891 15.4609 112.628 15.0078 112.284 14.6328C111.941 14.2526 111.529 13.9609 111.05 13.7578C110.576 13.5547 110.045 13.4531 109.456 13.4531H106.761V12.625H109.456C110.165 12.625 110.813 12.7474 111.402 12.9922C111.995 13.2318 112.508 13.5807 112.941 14.0391C113.378 14.4922 113.714 15.0365 113.948 15.6719C114.188 16.3073 114.308 17.0156 114.308 17.7969V18.8359C114.308 19.6172 114.188 20.3255 113.948 20.9609C113.714 21.5964 113.378 22.1406 112.941 22.5938C112.503 23.0469 111.985 23.3958 111.386 23.6406C110.787 23.8802 110.12 24 109.386 24ZM107.237 12.625V24H106.277V12.625H107.237ZM132.266 17.7031V18.9219C132.266 19.7188 132.161 20.4401 131.953 21.0859C131.75 21.7266 131.453 22.276 131.062 22.7344C130.677 23.1927 130.214 23.5443 129.672 23.7891C129.13 24.0339 128.521 24.1562 127.844 24.1562C127.182 24.1562 126.578 24.0339 126.031 23.7891C125.49 23.5443 125.023 23.1927 124.633 22.7344C124.242 22.276 123.94 21.7266 123.727 21.0859C123.513 20.4401 123.406 19.7188 123.406 18.9219V17.7031C123.406 16.9062 123.51 16.1875 123.719 15.5469C123.932 14.901 124.234 14.349 124.625 13.8906C125.016 13.4323 125.482 13.0807 126.023 12.8359C126.565 12.5911 127.167 12.4688 127.828 12.4688C128.505 12.4688 129.115 12.5911 129.656 12.8359C130.198 13.0807 130.664 13.4323 131.055 13.8906C131.445 14.349 131.745 14.901 131.953 15.5469C132.161 16.1875 132.266 16.9062 132.266 17.7031ZM131.312 18.9219V17.6875C131.312 17.0156 131.234 16.4115 131.078 15.875C130.927 15.3385 130.701 14.8802 130.398 14.5C130.102 14.1198 129.737 13.8281 129.305 13.625C128.872 13.4219 128.38 13.3203 127.828 13.3203C127.292 13.3203 126.81 13.4219 126.383 13.625C125.956 13.8281 125.591 14.1198 125.289 14.5C124.992 14.8802 124.763 15.3385 124.602 15.875C124.445 16.4115 124.367 17.0156 124.367 17.6875V18.9219C124.367 19.599 124.445 20.2083 124.602 20.75C124.763 21.2865 124.995 21.7474 125.297 22.1328C125.599 22.513 125.964 22.8047 126.391 23.0078C126.823 23.2109 127.307 23.3125 127.844 23.3125C128.401 23.3125 128.893 23.2109 129.32 23.0078C129.747 22.8047 130.109 22.513 130.406 22.1328C130.703 21.7474 130.927 21.2865 131.078 20.75C131.234 20.2083 131.312 19.599 131.312 18.9219ZM143.162 12.625H144.123V20.3281C144.123 21.1823 143.944 21.8932 143.584 22.4609C143.225 23.0286 142.741 23.4531 142.131 23.7344C141.527 24.0156 140.858 24.1562 140.123 24.1562C139.368 24.1562 138.689 24.0156 138.084 23.7344C137.48 23.4531 137.001 23.0286 136.647 22.4609C136.298 21.8932 136.123 21.1823 136.123 20.3281V12.625H137.077V20.3281C137.077 20.9896 137.207 21.5443 137.467 21.9922C137.728 22.4401 138.087 22.776 138.545 23C139.004 23.224 139.53 23.3359 140.123 23.3359C140.712 23.3359 141.235 23.224 141.694 23C142.152 22.776 142.511 22.4401 142.772 21.9922C143.032 21.5443 143.162 20.9896 143.162 20.3281V12.625ZM152.239 12.625V24H151.286V12.625H152.239ZM156.137 12.625V13.4531H147.395V12.625H156.137Z" fill="#333333"/>
</svg>
